<!-- The Trove mark on a hall-dark tile. Colours are inlined rather than themed:
     a favicon renders outside the app, with no stylesheet to inherit from. Keep
     in sync with src/core/components/TroveMark.vue. -->
<svg xmlns="http://www.w3.org/2000/svg" viewBox="0 0 24 24">
  <rect width="24" height="24" rx="5" fill="#0a090f" />
  <g transform="translate(2.4 2.4) scale(0.8)">
    <path d="M3 11.4V9.6C3 5.9 6.6 3.6 12 3.6s9 2.3 9 6v1.8" fill="none" stroke="#a06cf5" stroke-width="1.8" stroke-linecap="round" />
    <path d="M3 11.4h18V18a2 2 0 0 1-2 2H5a2 2 0 0 1-2-2v-6.6Z" fill="none" stroke="#a06cf5" stroke-width="1.8" stroke-linejoin="round" />
    <path d="M3 13.6h18" fill="none" stroke="#a06cf5" stroke-width="1.8" />
    <path d="M12 9.3l2.3 2.9-2.3 2.9-2.3-2.9L12 9.3Z" fill="#e08d3c" />
    <path d="M12 9.3l2.3 2.9H9.7L12 9.3Z" fill="#f5b463" />
  </g>
</svg>
